<?xml version="1.0" encoding="utf-8"?><svg xml:space="preserve" viewBox="0 0 100 100" y="0px" x="0px" xmlns:xlink="http://www.w3.org/1999/xlink" xmlns="http://www.w3.org/2000/svg" id="圖層_1" version="1.1" width="200px" height="200px" style="width:100%;height:100%;background-size:initial;background-repeat-y:initial;background-repeat-x:initial;background-position-y:initial;background-position-x:initial;background-origin:initial;background-image:initial;background-color:rgb(228, 240, 241);background-clip:initial;background-attachment:initial;animation-play-state:paused" ><g class="ldl-scale" style="transform-origin:50% 50%;transform:rotate(0deg) scale(0.8, 0.8);animation-play-state:paused" ><g style="animation-play-state:paused" ><path d="M88.24,13.99H11.76c-2.31,0-4.18,1.87-4.18,4.18v15.21h84.83V18.17C92.42,15.86,90.55,13.99,88.24,13.99z" fill="#E15B64" style="fill:rgb(225, 91, 100);animation-play-state:paused" ></path>
<circle r="3.5" cy="23.95" cx="19.8" fill="#C33737" style="fill:rgb(195, 55, 55);animation-play-state:paused" ></circle>
<line y2="23.95" x2="19.8" y1="10.03" x1="19.8" stroke-miterlimit="10" stroke-linecap="round" stroke-width="4" stroke="#CCCCCC" fill="#333333" style="stroke:rgb(204, 204, 204);fill:rgb(51, 51, 51);animation-play-state:paused" ></line>
<circle r="3.5" cy="23.95" cx="34.91" fill="#C33737" style="fill:rgb(195, 55, 55);animation-play-state:paused" ></circle>
<line y2="23.95" x2="34.91" y1="10.03" x1="34.91" stroke-miterlimit="10" stroke-linecap="round" stroke-width="4" stroke="#CCCCCC" fill="#333333" style="stroke:rgb(204, 204, 204);fill:rgb(51, 51, 51);animation-play-state:paused" ></line>
<circle r="3.5" cy="23.95" cx="50.01" fill="#C33737" style="fill:rgb(195, 55, 55);animation-play-state:paused" ></circle>
<line y2="23.95" x2="50.01" y1="10.03" x1="50.01" stroke-miterlimit="10" stroke-linecap="round" stroke-width="4" stroke="#CCCCCC" fill="#333333" style="stroke:rgb(204, 204, 204);fill:rgb(51, 51, 51);animation-play-state:paused" ></line>
<circle r="3.5" cy="23.95" cx="65.11" fill="#C33737" style="fill:rgb(195, 55, 55);animation-play-state:paused" ></circle>
<line y2="23.95" x2="65.11" y1="10.03" x1="65.11" stroke-miterlimit="10" stroke-linecap="round" stroke-width="4" stroke="#CCCCCC" fill="#333333" style="stroke:rgb(204, 204, 204);fill:rgb(51, 51, 51);animation-play-state:paused" ></line>
<circle r="3.5" cy="23.95" cx="80.22" fill="#C33737" style="fill:rgb(195, 55, 55);animation-play-state:paused" ></circle>
<line y2="23.95" x2="80.22" y1="10.03" x1="80.22" stroke-miterlimit="10" stroke-linecap="round" stroke-width="4" stroke="#CCCCCC" fill="#333333" style="stroke:rgb(204, 204, 204);fill:rgb(51, 51, 51);animation-play-state:paused" ></line></g>
<g style="animation-play-state:paused" ><path d="M7.58,33.38v51.84c0,2.31,1.87,4.18,4.18,4.18h64.95h1.4l14.3-14.3v-1.4V33.38H7.58z" fill="#E0E0E0" style="fill:rgb(224, 224, 224);animation-play-state:paused" ></path>
<path d="M92.42,73.7H81.27c-2.52,0-4.55,2.04-4.55,4.55V89.4h1.4l14.3-14.3V73.7z" fill="#B3B3B3" style="fill:rgb(179, 179, 179);animation-play-state:paused" ></path></g>
<rect height="12" width="12" fill="#A0C8D7" y="40.25" x="16.3" style="fill:rgb(160, 200, 215);animation-play-state:paused" ></rect>
<rect height="12" width="12" fill="#A0C8D7" y="40.25" x="34.77" style="fill:rgb(160, 200, 215);animation-play-state:paused" ></rect>
<rect height="12" width="12" fill="#A0C8D7" y="40.25" x="53.23" style="fill:rgb(160, 200, 215);animation-play-state:paused" ></rect>
<rect height="12" width="12" fill="#A0C8D7" y="40.25" x="71.7" style="fill:rgb(160, 200, 215);animation-play-state:paused" ></rect>
<rect height="12" width="12" fill="#A0C8D7" y="55.75" x="16.3" style="fill:rgb(160, 200, 215);animation-play-state:paused" ></rect>
<rect height="12" width="12" fill="#A0C8D7" y="55.75" x="34.77" style="fill:rgb(160, 200, 215);animation-play-state:paused" ></rect>
<rect height="12" width="12" fill="#A0C8D7" y="55.75" x="53.23" style="fill:rgb(160, 200, 215);animation-play-state:paused" ></rect>
<rect height="12" width="12" fill="#A0C8D7" y="55.75" x="71.7" style="fill:rgb(160, 200, 215);animation-play-state:paused" ></rect>
<rect height="12" width="12" fill="#A0C8D7" y="71.25" x="16.3" style="fill:rgb(160, 200, 215);animation-play-state:paused" ></rect>
<rect height="12" width="12" fill="#FFFFFF" y="71.25" x="34.77" style="fill:rgb(255, 255, 255);animation-play-state:paused" ></rect>
<rect height="12" width="12" fill="#FFFFFF" y="71.25" x="53.23" style="fill:rgb(255, 255, 255);animation-play-state:paused" ></rect>
<metadata xmlns:d="https://loading.io/stock/" style="animation-play-state:paused" ><d:name style="animation-play-state:paused" >calendar</d:name>


<d:tags style="animation-play-state:paused" >calendar,schedule,plan,work,business,memorial day,remark</d:tags>


<d:license style="animation-play-state:paused" >by</d:license>


<d:slug style="animation-play-state:paused" >9hdwlh</d:slug></metadata></g><!-- generated by https://loading.io/ --></svg>